# xmcd
# Track frame offsets:
# 150
# 20224
# 40220
# 59469
# 71337
# 87904
# 102995
# 120476
# 134668
# 147163
#
# Disc length: 2187 seconds
# Revision: 0
# Processed by: cddbd v1.4PL0 Copyright (c) Steve Scherf et al.
# Submitted via: VisiTrax 2.9.5.180 - For more info visit www.synapsa.com
#
DISCID=9008890a
DTITLE=Various Artist - New Country Vol. 12 November-December 2000
DYEAR=2000
DGENRE=
TTITLE0=Fred McCarty/Marti Slater - Doin' right by you
TTITLE1=Nick Nichols - Elese (she's tending flowers
TTITLE2=Michelle James - Harden my heart
TTITLE3=Aldo - I'm on fire
TTITLE4=Debbie West - The chill
TTITLE5=Jim Arp - The legend of Jack Champlan
TTITLE6=Kelly Spencer - ou caught me lookin'
TTITLE7=DuWayne Heyo - Your jealousy
TTITLE8=Barry kaye - Randolph the redneck reindeer
TTITLE9=Jason Gillentine - Sweet decembers
EXTD=
EXTT0=
EXTT1=
EXTT2=
EXTT3=
EXTT4=
EXTT5=
EXTT6=
EXTT7=
EXTT8=
EXTT9=
PLAYORDER=
